<svg xmlns="http://www.w3.org/2000/svg" xmlns:xlink="http://www.w3.org/1999/xlink" width="500" zoomAndPan="magnify" viewBox="0 0 375 374.999991" height="500" preserveAspectRatio="xMidYMid meet" version="1.0"><defs><g/><clipPath id="cd2d9884cc"><path d="M 131 168 L 140 168 L 140 182.105469 L 131 182.105469 Z M 131 168 " clip-rule="nonzero"/></clipPath><clipPath id="25f5eb203f"><path d="M 112.5 107.855469 L 159 107.855469 L 159 174 L 112.5 174 Z M 112.5 107.855469 " clip-rule="nonzero"/></clipPath><clipPath id="e70db07991"><path d="M 118 107.855469 L 152 107.855469 L 152 174 L 118 174 Z M 118 107.855469 " clip-rule="nonzero"/></clipPath><clipPath id="c44f0f8e52"><path d="M 123 107.855469 L 148 107.855469 L 148 176 L 123 176 Z M 123 107.855469 " clip-rule="nonzero"/></clipPath><clipPath id="1e3dda0dbd"><path d="M 112.5 150 L 190 150 L 190 199 L 112.5 199 Z M 112.5 150 " clip-rule="nonzero"/></clipPath><clipPath id="0040a24eb7"><path d="M 162 120 L 262.5 120 L 262.5 197 L 162 197 Z M 162 120 " clip-rule="nonzero"/></clipPath><clipPath id="3650da2f50"><path d="M 291 158 L 294.960938 158 L 294.960938 177 L 291 177 Z M 291 158 " clip-rule="nonzero"/></clipPath><clipPath id="33e21f5262"><path d="M 292 185 L 294.960938 185 L 294.960938 200 L 292 200 Z M 292 185 " clip-rule="nonzero"/></clipPath><clipPath id="dcf6ae5ba0"><path d="M 262 263 L 269 263 L 269 269.582031 L 262 269.582031 Z M 262 263 " clip-rule="nonzero"/></clipPath><clipPath id="52178b0b0c"><rect x="0" width="68" y="0" height="25"/></clipPath></defs><rect x="-37.5" width="450" fill="#ffffff" y="-37.499999" height="449.999989" fill-opacity="1"/><rect x="-37.5" width="450" fill="#ffffff" y="-37.499999" height="449.999989" fill-opacity="1"/><g clip-path="url(#cd2d9884cc)"><path fill="#5a3114" d="M 139.371094 182.109375 C 139.332031 181.773438 139.523438 181.433594 139.5625 181.105469 C 139.628906 180.621094 139.480469 180.191406 139.308594 179.726562 C 139.105469 179.164062 138.839844 178.644531 138.820312 178.058594 C 138.792969 177.234375 139.238281 176.40625 139.410156 175.597656 C 139.75 173.984375 139.792969 172.324219 139.785156 170.691406 C 139.773438 169.308594 138.222656 168.777344 136.578125 168.480469 C 135.523438 168.292969 134.027344 168.320312 133.148438 168.863281 C 131.355469 169.984375 132.320312 171.921875 132.457031 173.382812 C 132.539062 174.242188 132.1875 175.09375 131.992188 175.933594 C 131.804688 176.746094 131.90625 177.535156 132.066406 178.347656 C 132.265625 179.347656 132.160156 180.203125 131.738281 181.171875 C 131.628906 181.421875 131.53125 181.667969 131.460938 181.910156 C 131.421875 181.976562 131.386719 182.042969 131.347656 182.109375 L 139.371094 182.109375 " fill-opacity="1" fill-rule="nonzero"/></g><g clip-path="url(#25f5eb203f)"><path fill="#426222" d="M 132.015625 127.757812 C 131.585938 128.730469 129.242188 129.285156 128.308594 129.769531 C 128.308594 129.769531 129.875 127.738281 130.117188 127.3125 C 130.507812 126.609375 130.929688 125.921875 131.320312 125.21875 C 132.871094 122.433594 135.761719 113.035156 135.761719 107.914062 C 136.5 112.964844 138.363281 122.078125 140.914062 124.347656 C 140.398438 124.34375 138.902344 124.21875 138.953125 124.308594 C 140.109375 126.351562 141.277344 128.417969 142.960938 130.078125 C 141.585938 129.761719 139.195312 127.722656 139.195312 127.722656 C 139.195312 127.722656 143.601562 135.460938 146.285156 137.066406 C 144.808594 136.796875 143.265625 136.796875 141.859375 136.328125 C 142.664062 138.003906 144.160156 139.542969 145.503906 140.8125 C 147.046875 142.285156 148.65625 143.359375 150.601562 144.226562 C 148.988281 144.832031 146.039062 144.761719 144.496094 144.226562 L 144.429688 144.226562 C 144.632812 144.832031 145.300781 145.296875 145.703125 145.832031 C 146.308594 146.703125 147.425781 147.640625 148.027344 148.511719 C 148.96875 149.78125 150.242188 151.523438 151.652344 152.324219 C 149.371094 152.527344 147.425781 151.457031 145.210938 151.253906 L 145.34375 151.253906 C 147.15625 155.804688 149.839844 160.089844 153.597656 163.234375 C 150.710938 163.503906 148.164062 161.628906 145.480469 161.027344 C 148.699219 163.972656 155.492188 170.890625 158.980469 173.632812 C 157.773438 173.03125 155.761719 173.433594 154.417969 173.296875 C 152.878906 173.164062 151.402344 172.761719 149.925781 172.292969 C 148.109375 171.746094 139.871094 171.625 135.761719 171.609375 C 131.367188 171.597656 123.542969 171.011719 121.597656 171.578125 C 115.558594 173.34375 113.867188 172.917969 112.542969 172.917969 C 116.027344 170.175781 121.886719 163.972656 125.105469 161.027344 C 122.421875 161.628906 119.875 163.503906 116.988281 163.234375 C 120.746094 160.089844 123.429688 155.804688 125.242188 151.253906 L 125.375 151.253906 C 123.160156 151.457031 121.214844 152.527344 118.933594 152.324219 C 120.34375 151.523438 123.066406 149.78125 124.003906 148.511719 C 124.609375 147.640625 125.144531 146.703125 125.75 145.832031 C 126.152344 145.296875 126.824219 144.832031 127.023438 144.226562 L 126.957031 144.226562 C 125.414062 144.761719 122.464844 144.832031 120.851562 144.226562 C 122.796875 143.359375 124.40625 142.285156 125.949219 140.8125 C 127.292969 139.542969 127.921875 138.003906 128.726562 136.328125 C 127.320312 136.796875 125.777344 136.796875 124.300781 137.066406 C 126.984375 135.460938 130.804688 130.5 132.015625 127.757812 " fill-opacity="1" fill-rule="nonzero"/></g><g clip-path="url(#e70db07991)"><path fill="#51792b" d="M 144.621094 166.917969 C 148.398438 168.554688 149.453125 168.160156 150.285156 168.160156 C 148.101562 165.613281 144.4375 159.859375 142.425781 157.125 C 144.101562 157.6875 145.699219 159.425781 147.5 159.175781 C 145.152344 156.261719 143.476562 152.292969 142.34375 148.074219 C 143.691406 148.292969 144.886719 149.238281 146.285156 149.054688 C 145.402344 148.308594 143.996094 146.496094 143.113281 145.515625 C 140.53125 142.648438 140.859375 142.804688 139.457031 140.105469 C 140.339844 140.542969 143.589844 141.394531 144.511719 141.640625 C 139.816406 138.703125 138.859375 128.808594 138.105469 126.261719 C 138.371094 127.164062 139.835938 127.679688 140.421875 128.128906 C 140.421875 128.128906 139.441406 126.246094 139.292969 125.847656 C 139.046875 125.199219 138.785156 124.558594 138.539062 123.90625 C 137.566406 121.320312 135.761719 112.605469 135.761719 107.851562 C 135.300781 112.539062 134.132812 120.992188 132.539062 123.097656 C 132.859375 123.09375 133.796875 122.976562 133.765625 123.0625 C 133.039062 124.957031 132.3125 126.875 131.257812 128.414062 C 132.117188 128.121094 133.609375 126.226562 133.609375 126.226562 C 133.609375 126.226562 130.859375 137.574219 129.179688 139.0625 C 130.101562 138.816406 131.066406 138.816406 131.949219 138.382812 C 131.445312 139.933594 132.65625 140.976562 125.820312 149.054688 C 127.21875 149.238281 128.414062 148.292969 129.761719 148.074219 C 128.628906 152.292969 126.953125 156.261719 124.605469 159.175781 C 126.410156 159.425781 128.003906 157.6875 129.683594 157.125 C 127.667969 159.859375 123.421875 166.277344 121.238281 168.824219 C 121.992188 168.265625 123.253906 168.636719 124.09375 168.511719 C 124.765625 168.425781 125.417969 168.214844 126.066406 167.949219 C 124.6875 169.613281 120.171875 172.789062 118.546875 173.8125 C 118.546875 173.8125 129.488281 174.304688 133.800781 166.96875 C 134.3125 166.960938 134.800781 166.953125 135.234375 166.949219 C 137.054688 169.351562 144.832031 174.679688 151.640625 173.695312 C 151.640625 173.695312 144.140625 171.65625 142.003906 166.691406 C 143.1875 166.671875 144.164062 166.71875 144.621094 166.917969 " fill-opacity="1" fill-rule="nonzero"/></g><g clip-path="url(#c44f0f8e52)"><path fill="#639436" d="M 135.867188 107.914062 C 135.867188 107.914062 135.714844 123.484375 133.769531 125.273438 C 133.769531 125.273438 134.816406 125.378906 135.867188 124.371094 C 135.867188 124.371094 134.503906 133.230469 131.160156 135.144531 C 131.160156 135.144531 134.816406 135.242188 135.867188 133.734375 C 135.867188 133.734375 135.976562 141.683594 130.222656 143.398438 C 130.222656 143.398438 134.371094 143.597656 136.511719 141.585938 C 136.511719 141.585938 134.371094 148.128906 128.484375 150.644531 C 128.484375 150.644531 132.765625 150.242188 134.503906 149.035156 C 134.503906 149.035156 131.292969 157.894531 127.011719 159.605469 C 127.011719 159.605469 131.027344 159.90625 133.835938 159.203125 C 133.835938 159.203125 129.503906 171.152344 123.480469 175.546875 C 123.480469 175.546875 128.886719 175.066406 136.511719 171.613281 C 136.511719 171.613281 140.289062 174.703125 147.648438 175.546875 C 147.648438 175.546875 141.464844 171.179688 139.324219 167.152344 C 139.324219 167.152344 140.527344 167.882812 144.273438 168.375 C 144.273438 168.375 136.648438 162.824219 136.78125 155.878906 C 136.78125 155.878906 139.191406 160.007812 142.402344 160.308594 C 142.402344 160.308594 135.710938 151.953125 137.449219 146.117188 C 137.449219 146.117188 137.851562 149.941406 142.402344 150.949219 C 142.402344 150.949219 136.78125 144.402344 137.449219 137.054688 C 137.449219 137.054688 137.046875 138.363281 140.394531 138.867188 C 140.394531 138.867188 137.183594 135.042969 137.183594 129.910156 C 137.183594 129.910156 138.277344 132.25 140.792969 132.121094 C 140.792969 132.121094 135.441406 122.425781 135.867188 107.914062 " fill-opacity="1" fill-rule="nonzero"/></g><path fill="#6ca333" d="M 142.746094 169.546875 C 137.480469 168.757812 136.429688 161.929688 136.429688 161.929688 C 137.746094 162.714844 140.464844 161.929688 140.464844 161.929688 C 135.378906 161.878906 135.714844 151.542969 135.757812 150.613281 C 135.414062 161.5 128.972656 163.59375 128.972656 163.59375 C 133.332031 162.847656 135.199219 160.964844 135.199219 160.964844 L 134.480469 163.765625 C 133.847656 167.09375 127.652344 169.546875 127.652344 169.546875 C 129.890625 169.886719 132.839844 168.621094 134.613281 167.707031 C 134.324219 170.320312 134.339844 174.078125 136.398438 175.910156 C 136.398438 175.910156 136.996094 172.550781 136.734375 167.429688 C 138.929688 169.398438 142.746094 169.546875 142.746094 169.546875 " fill-opacity="1" fill-rule="nonzero"/><path fill="#6ca333" d="M 135.757812 150.613281 C 135.757812 150.589844 135.761719 150.570312 135.761719 150.546875 C 135.761719 150.546875 135.761719 150.570312 135.757812 150.613281 " fill-opacity="1" fill-rule="nonzero"/><path fill="#764d14" d="M 232.941406 192.390625 C 218.53125 186.28125 204.902344 184.765625 190.132812 184.640625 C 175.132812 184.472656 158.238281 186.304688 146.964844 188.769531 C 146.292969 188.917969 145.890625 189.589844 146.058594 190.242188 C 146.902344 193.425781 150.105469 195.363281 153.285156 194.625 C 163.628906 192.246094 177.621094 190.203125 190.195312 189.738281 C 204.605469 189.167969 218.847656 190.265625 232.457031 193.78125 C 232.835938 193.886719 233.238281 193.65625 233.34375 193.277344 C 233.46875 192.941406 233.300781 192.539062 232.941406 192.390625 Z M 232.941406 192.390625 " fill-opacity="1" fill-rule="nonzero"/><path fill="#764d14" d="M 187.140625 178.257812 C 189.753906 179.476562 194.769531 176.023438 196.390625 172.527344 C 198.011719 169.050781 196.371094 165.449219 193.734375 164.226562 C 191.125 163.003906 187.246094 163.320312 185.644531 166.796875 C 184.023438 170.3125 184.53125 177.054688 187.140625 178.257812 Z M 187.140625 178.257812 " fill-opacity="1" fill-rule="nonzero"/><g clip-path="url(#1e3dda0dbd)"><path fill="#141414" d="M 189.542969 153.269531 L 186.339844 150.382812 C 163.0625 166.921875 138.75 179.5625 113.46875 189.230469 C 112.835938 189.484375 112.542969 190.222656 112.878906 190.832031 C 114.058594 193.023438 117.554688 197.300781 125.816406 194.164062 C 128.363281 193.191406 130.953125 192.054688 133.589844 190.8125 C 133.316406 193.65625 133.695312 196.332031 134.136719 198.375 C 134.324219 199.21875 135.527344 199.175781 135.675781 198.332031 C 136.558594 193.636719 138.308594 189.96875 139.488281 187.882812 C 159.121094 177.519531 179.09375 161.90625 189.542969 153.269531 Z M 189.542969 153.269531 " fill-opacity="1" fill-rule="nonzero"/></g><g clip-path="url(#0040a24eb7)"><path fill="#141414" d="M 261.59375 187.90625 C 238.125 178.53125 209.851562 159.757812 194.957031 148.71875 C 195.863281 147.941406 196.515625 147.371094 196.8125 147.117188 C 197.695312 146.339844 198.8125 145.875 199.992188 145.769531 L 206.355469 145.179688 C 207.828125 145.054688 209.242188 144.464844 210.378906 143.515625 C 213.308594 141.09375 218.976562 135.636719 223.25 126.746094 C 223.484375 126.261719 223.503906 125.691406 223.292969 125.1875 C 223.230469 125.019531 222.976562 124.976562 222.871094 125.144531 C 221.691406 126.871094 216.613281 134.183594 211.960938 138.671875 C 211.75 138.859375 211.453125 138.902344 211.199219 138.753906 C 210.863281 138.542969 210.820312 138.101562 211.074219 137.808594 C 212.863281 135.847656 219.015625 129.0625 222.175781 124.007812 C 222.304688 123.796875 222.304688 123.523438 222.15625 123.332031 C 221.925781 123.015625 221.441406 122.996094 221.1875 123.3125 C 219.394531 125.609375 213.414062 133.53125 209.746094 136.796875 C 209.472656 137.027344 209.074219 137.027344 208.800781 136.796875 C 208.503906 136.523438 208.484375 136.078125 208.757812 135.785156 C 210.695312 133.71875 217.542969 126.09375 220.28125 122.34375 C 220.492188 122.046875 220.429688 121.605469 220.113281 121.394531 C 219.816406 121.207031 219.4375 121.246094 219.207031 121.523438 C 217.5625 123.585938 211.179688 131.570312 207.261719 134.753906 C 207.070312 134.898438 206.777344 134.878906 206.609375 134.710938 C 206.441406 134.519531 206.441406 134.226562 206.609375 134.058594 C 208.292969 132.289062 216.003906 124.007812 218.40625 120.761719 C 218.511719 120.617188 218.488281 120.382812 218.320312 120.277344 C 217.816406 119.941406 217.164062 120.027344 216.761719 120.46875 C 214.402344 123.082031 206.523438 131.738281 200.921875 137.089844 C 200.246094 137.722656 199.699219 138.480469 199.320312 139.34375 L 199.191406 139.640625 C 198.625 140.863281 197.824219 141.871094 196.8125 142.671875 C 195.167969 143.9375 193.503906 145.179688 191.839844 146.402344 C 189.078125 144.296875 186.972656 142.589844 185.773438 141.492188 C 185.054688 140.839844 184.675781 139.871094 184.738281 138.902344 C 184.867188 136.585938 184.382812 131.84375 179.367188 127.460938 C 172.375 121.351562 166.917969 119.960938 164.515625 121.667969 C 160.363281 124.617188 164.179688 143.179688 179.726562 143.261719 C 181.054688 143.261719 182.316406 143.769531 183.328125 144.632812 C 185.898438 146.824219 214.613281 173.558594 237.789062 186.808594 C 238.882812 188.980469 240.210938 192.140625 240.925781 195.996094 C 241.09375 196.835938 242.273438 196.859375 242.464844 196.039062 C 242.863281 194.289062 243.179688 192.054688 243.097656 189.632812 C 245.160156 190.644531 247.164062 191.527344 249.058594 192.246094 C 257.359375 195.300781 260.835938 191.699219 262.140625 189.546875 C 262.480469 188.9375 262.226562 188.15625 261.59375 187.90625 Z M 261.59375 187.90625 " fill-opacity="1" fill-rule="nonzero"/></g><path fill="#231f20" d="M 85.636719 154.949219 C 85.589844 154.710938 84.960938 156 84.558594 157.472656 C 84.234375 158.996094 84.09375 160.1875 84.324219 159.789062 C 84.445312 159.578125 84.707031 158.652344 84.902344 158.050781 C 85.246094 156.570312 85.738281 155.203125 85.636719 154.949219 Z M 82.757812 166.589844 C 82.726562 166.632812 82.589844 167.148438 82.496094 167.457031 C 82.5 167.660156 82.488281 168.0625 82.519531 168.007812 C 82.550781 167.957031 82.613281 167.433594 82.722656 167.132812 C 82.738281 166.929688 82.796875 166.539062 82.757812 166.589844 Z M 286.300781 216.160156 C 286.054688 216.796875 285.777344 217.523438 285.503906 218.222656 C 286.109375 215.894531 286.773438 213.289062 287.46875 209.707031 C 288.277344 206.320312 289.027344 203.007812 289.171875 199.710938 C 290.351562 189.558594 289.996094 178.667969 288.089844 168.035156 C 286.824219 159.617188 283.976562 151.90625 280.886719 144.945312 C 279.429688 142.136719 277.855469 139.222656 276.390625 136.058594 C 274.082031 132.300781 272.085938 128.496094 269.308594 125.117188 C 267.664062 123.078125 266.113281 120.910156 264.382812 118.882812 L 258.929688 113.019531 C 249.695312 103.683594 238.667969 96.160156 226.589844 90.964844 C 224.519531 89.910156 222.339844 89.136719 220.136719 88.433594 L 213.5625 86.203125 C 209.027344 85.3125 204.609375 83.792969 199.980469 83.449219 C 184.558594 81.304688 168.683594 82.578125 153.800781 87.300781 C 141.738281 91.140625 130.417969 97.421875 120.597656 105.429688 C 119.386719 106.257812 118.363281 107.355469 117.285156 108.296875 C 109.679688 114.488281 103.734375 122.421875 98.484375 130.5 C 91.105469 142.527344 86.105469 155.984375 83.882812 169.957031 C 83.550781 173.089844 82.933594 176.210938 82.847656 179.378906 C 82.832031 182.550781 82.636719 185.722656 82.738281 188.882812 C 83.128906 198.863281 85.089844 208.710938 88.113281 218.203125 C 91.320312 227.65625 96.011719 236.523438 101.597656 244.746094 C 102.191406 245.515625 102.792969 246.292969 103.375 247.046875 L 107.082031 251.992188 L 111.269531 256.53125 C 113.917969 259.703125 117.257812 262.160156 120.269531 264.957031 C 121.15625 265.824219 122.253906 266.652344 123.183594 267.417969 C 123.980469 268.0625 123.8125 268.019531 122.894531 267.371094 C 120.441406 265.820312 118.46875 263.675781 116.230469 261.855469 C 113.96875 260.042969 111.988281 257.9375 110.035156 255.800781 C 108.410156 254.011719 106.582031 252.257812 105.222656 250.347656 C 100.585938 244.898438 96.84375 238.921875 94.089844 235.421875 C 93.335938 234.316406 92.117188 232.015625 91 229.632812 C 90.660156 228.902344 90.40625 228.214844 90.195312 227.648438 C 90.125 227.457031 90.246094 227.535156 90.382812 227.75 C 90.703125 228.273438 91.109375 228.9375 91.476562 229.535156 C 91.839844 230.125 92.238281 230.765625 92.539062 231.257812 C 92.667969 231.453125 92.714844 231.40625 92.675781 231.238281 C 92.632812 231.066406 92.457031 230.574219 92.308594 230.285156 C 90.90625 227.734375 89.851562 225.019531 88.839844 222.332031 C 87.902344 219.917969 87.070312 218.273438 86.566406 217.4375 C 86.308594 216.972656 86.070312 216.613281 85.761719 215.902344 C 85.316406 214.894531 84.769531 213.171875 84.21875 211.144531 C 83.976562 210.195312 83.726562 209.214844 83.5 208.324219 C 83.078125 205.382812 82.660156 202.503906 82.152344 199.695312 C 81.628906 196.882812 81.574219 194.070312 81.152344 191.332031 C 80.777344 189.109375 80.757812 186.664062 80.929688 184.144531 C 81.019531 181.902344 80.9375 180.398438 80.792969 179.304688 C 80.714844 178.546875 80.527344 177.90625 80.558594 177.046875 C 80.558594 176.179688 80.515625 175.265625 80.636719 174.066406 C 80.867188 171.285156 81.066406 168.941406 81.246094 166.789062 C 81.5625 164.644531 81.851562 162.6875 82.148438 160.667969 C 82.300781 159.660156 82.613281 158.039062 83.023438 156.484375 C 83.558594 154.960938 84.128906 153.480469 84.507812 152.667969 C 85.082031 151.511719 85.484375 150.695312 86.019531 149.617188 C 86.871094 147.613281 87.953125 145.015625 88.671875 142.871094 C 88.921875 142.042969 88.996094 141.546875 89.3125 140.609375 C 89.617188 139.691406 90.070312 138.375 90.566406 137.28125 C 92.792969 133.140625 94.625 129.558594 96.859375 125.871094 C 97.085938 125.546875 97.566406 124.925781 97.707031 124.785156 C 98.054688 124.4375 98.519531 123.960938 98.496094 124.121094 C 98.457031 124.402344 98.042969 125.175781 97.863281 125.640625 C 96.960938 127.558594 96.007812 130.550781 92.328125 136.785156 C 91.160156 139.335938 90.234375 141.875 89.210938 144.371094 C 88.703125 145.617188 88.496094 146.628906 88.875 145.933594 C 89.238281 145.269531 89.699219 144.433594 90.03125 143.699219 L 92.589844 137.945312 C 93.496094 136.058594 94.640625 134.292969 95.652344 132.457031 C 97.582031 128.722656 100.082031 125.351562 102.546875 121.949219 C 104.023438 119.664062 105.9375 117.71875 107.71875 115.664062 C 109.503906 113.613281 111.277344 111.542969 113.347656 109.773438 C 114.792969 108.425781 116.367188 106.953125 117.65625 105.75 C 122.445312 101.523438 127.550781 97.871094 133.160156 94.804688 C 136 92.992188 139.355469 91.777344 142.371094 90.160156 C 153.175781 85.234375 164.816406 82.277344 176.613281 81.097656 C 180.292969 80.800781 183.988281 80.410156 187.707031 80.65625 L 193.277344 80.78125 C 195.128906 80.925781 196.964844 81.226562 198.808594 81.433594 C 204.007812 81.832031 209.023438 83.292969 214.109375 84.382812 C 219.003906 86.132812 224.085938 87.421875 228.734375 89.808594 C 231.410156 91.078125 234.296875 92.164062 236.703125 93.664062 C 242.816406 96.832031 248.574219 100.8125 253.777344 105.332031 C 263.855469 114.074219 272.480469 124.636719 278.667969 136.515625 C 279.921875 139.1875 281.339844 141.804688 282.550781 144.519531 L 285.769531 152.851562 C 287.480469 158.550781 289.054688 164.316406 289.871094 170.230469 C 290.289062 172.179688 290.480469 174.320312 290.613281 176.105469 C 291.101562 180.238281 291.453125 184.402344 291.175781 188.585938 C 291.238281 192.78125 290.597656 196.933594 289.992188 201.09375 C 289.863281 202.0625 289.726562 203.136719 289.609375 204.039062 C 288.539062 208.785156 287.78125 212.570312 286.300781 216.160156 " fill-opacity="1" fill-rule="nonzero"/><path fill="#231f20" d="M 78.980469 226.375 C 78.234375 224.378906 77.375 222.402344 76.699219 220.371094 C 76.128906 218.304688 75.566406 216.253906 75.007812 214.238281 C 73.652344 209.839844 73.210938 205.265625 72.355469 200.789062 C 71.789062 196.273438 71.488281 191.710938 71.320312 187.15625 C 71.117188 175.203125 73.039062 163.488281 76.101562 152.226562 C 77.539062 148.09375 78.542969 143.976562 80.554688 140.457031 C 82.621094 136.339844 84.503906 131.960938 87 127.832031 C 87.753906 126.464844 88.492188 125.132812 89.257812 123.746094 C 90.273438 121.914062 91.679688 120.292969 91.753906 120.105469 C 93.535156 117.75 94.175781 116.902344 94.792969 116.089844 C 95.359375 115.296875 96.042969 114.289062 96.355469 113.757812 C 98.628906 110.703125 96.664062 111.460938 93.511719 115.734375 C 91.644531 118.292969 89.496094 120.738281 87.941406 123.613281 C 86.179688 126.921875 84.144531 130.09375 82.507812 133.492188 C 80.992188 136.949219 79.28125 140.355469 77.867188 143.917969 C 73.78125 154.589844 71.382812 165.882812 70.386719 177.265625 C 70.300781 181.035156 70.210938 185.066406 70.277344 188.449219 C 70.597656 191.800781 70.917969 195.191406 71.242188 198.632812 C 71.699219 202.050781 72.40625 205.480469 72.980469 208.976562 C 74.441406 215.277344 76.148438 221.535156 78.664062 227.464844 C 79.253906 228.992188 79.742188 229.902344 79.929688 229.96875 C 80.152344 230.042969 79.621094 228.03125 78.980469 226.375 " fill-opacity="1" fill-rule="nonzero"/><path fill="#231f20" d="M 107.25 107.773438 C 110.078125 105.328125 112.523438 103.121094 114.691406 101.046875 C 117.011719 99.148438 119.09375 97.4375 120.957031 95.695312 C 122.449219 94.230469 123.792969 93.074219 125.183594 92 C 127.554688 90.074219 126.855469 90.074219 123.042969 92.027344 C 120.960938 93.121094 118.90625 94.648438 116.207031 96.597656 C 115.378906 97.238281 114.4375 97.964844 113.742188 98.503906 C 111.972656 100.117188 110.300781 101.886719 108.492188 103.609375 C 106.671875 105.316406 104.839844 107.113281 103.128906 109.195312 C 101.597656 110.9375 100.1875 112.945312 100.355469 113.054688 C 100.546875 113.1875 100.851562 113.183594 101.195312 113.144531 C 101.882812 113.074219 103.78125 111.308594 107.25 107.773438 " fill-opacity="1" fill-rule="nonzero"/><path fill="#231f20" d="M 172.855469 67.402344 C 173.398438 67.359375 173.972656 67.3125 174.527344 67.269531 C 181.765625 66.453125 189.039062 66.542969 196.308594 67.15625 C 200.117188 67.722656 204.101562 67.980469 207.921875 68.738281 C 209.425781 69.046875 210.878906 69.339844 212.910156 69.753906 C 211.367188 69.34375 210.5 69.121094 209.570312 68.875 C 189.46875 64.164062 167.835938 66.0625 148.152344 72.308594 C 145.042969 73.488281 141.898438 74.675781 138.746094 75.871094 L 129.6875 80.355469 L 128.234375 81.105469 C 126.765625 82.019531 125.164062 83.25 125.980469 82.824219 C 126.691406 82.457031 127.59375 82 128.363281 81.527344 C 142.054688 73.941406 157.238281 68.957031 172.855469 67.402344 " fill-opacity="1" fill-rule="nonzero"/><path fill="#231f20" d="M 271.15625 248.105469 C 272.882812 245.765625 274.445312 243.949219 275.496094 241.738281 C 276.296875 240.230469 277.085938 238.433594 276.65625 238.914062 C 276.277344 239.335938 275.667969 240.066406 275.105469 240.988281 C 273.140625 244.476562 270.359375 247.425781 268.050781 250.695312 C 265.460938 253.75 262.671875 256.664062 259.882812 259.5625 C 258.605469 260.691406 257.1875 262.128906 255.871094 263.417969 C 254.984375 264.285156 254.796875 264.785156 255.617188 264.128906 C 257.09375 262.9375 258.511719 261.792969 260.1875 260.445312 C 264 256.667969 268.117188 252.601562 271.15625 248.105469 " fill-opacity="1" fill-rule="nonzero"/><g clip-path="url(#3650da2f50)"><path fill="#231f20" d="M 293.5 171.957031 C 294.058594 175.050781 294.34375 176.519531 294.855469 176.605469 C 294.855469 176.605469 294.988281 175.140625 294.933594 173.359375 C 294.71875 170.441406 294.121094 167.433594 293.570312 164.4375 C 293.0625 161.277344 292.058594 159.3125 291.6875 158.808594 C 291.191406 158.257812 291 158.8125 291.699219 162.117188 C 292.125 165.484375 292.78125 168.957031 293.5 171.957031 " fill-opacity="1" fill-rule="nonzero"/></g><path fill="#231f20" d="M 144.34375 77.613281 C 144.183594 77.632812 143.664062 77.777344 143.277344 77.921875 C 141.285156 78.632812 139.296875 79.394531 137.417969 80.390625 L 137.421875 80.417969 L 131.65625 83.269531 C 124.25 87.4375 123.039062 88.707031 124.308594 88.675781 C 124.550781 88.6875 124.816406 88.683594 125.386719 88.480469 C 125.699219 88.363281 126.636719 87.84375 127.378906 87.433594 C 127.628906 87.296875 128.367188 86.808594 128.492188 86.703125 C 129.742188 85.519531 131.617188 84.3125 133.929688 83.015625 C 136.261719 81.769531 138.851562 80.035156 141.992188 78.820312 C 142.863281 78.457031 143.589844 78.105469 144.230469 77.792969 C 144.496094 77.664062 144.507812 77.589844 144.34375 77.613281 " fill-opacity="1" fill-rule="nonzero"/><g clip-path="url(#33e21f5262)"><path fill="#231f20" d="M 292.988281 190.027344 C 292.902344 192.277344 292.71875 194.644531 292.289062 196.996094 C 292.207031 197.5625 292.210938 198.386719 292.175781 199.097656 C 292.277344 198.980469 292.363281 199.210938 292.480469 198.699219 C 293.25 195.320312 293.929688 193.574219 294.34375 193.527344 C 294.429688 193.519531 294.53125 192.867188 294.621094 192.519531 C 294.777344 191.933594 294.9375 188.765625 294.859375 187.316406 C 294.804688 186.261719 294.707031 184.945312 294.601562 185.003906 C 294.234375 185.199219 293.859375 185.886719 293.488281 186.503906 C 293.289062 186.832031 293.105469 188.144531 292.988281 190.027344 " fill-opacity="1" fill-rule="nonzero"/></g><path fill="#231f20" d="M 107.527344 101.535156 C 110.421875 98.832031 112.660156 96.441406 112.910156 95.921875 C 112.445312 96.207031 111.914062 96.339844 111.035156 97.046875 C 108.945312 98.742188 106.117188 101.421875 104.570312 103.125 C 103.378906 104.429688 103.242188 104.90625 104.625 103.933594 C 105.234375 103.503906 106.578125 102.410156 107.527344 101.535156 " fill-opacity="1" fill-rule="nonzero"/><path fill="#231f20" d="M 268.460938 259.316406 C 268.195312 259.578125 267.453125 260.539062 266.933594 261.179688 C 266.996094 261.246094 266.867188 261.539062 267.152344 261.335938 C 268.476562 260.300781 271.03125 258.101562 273.816406 254.433594 C 274.296875 253.773438 274.957031 252.738281 275.0625 252.480469 C 275.164062 252.246094 274.757812 252.601562 274.351562 253.082031 C 272.660156 255.261719 270.5625 257.234375 268.460938 259.316406 " fill-opacity="1" fill-rule="nonzero"/><g clip-path="url(#dcf6ae5ba0)"><path fill="#231f20" d="M 265.445312 266.378906 C 263.929688 267.84375 262.632812 269.296875 262.792969 269.355469 C 262.96875 269.523438 264.160156 268.683594 265.421875 267.769531 C 265.652344 267.601562 266.183594 267.175781 266.359375 267 C 266.972656 266.425781 267.78125 265.5625 267.878906 265.316406 C 268.300781 264.519531 268.589844 263.867188 268.742188 263.359375 C 268.816406 262.945312 266.957031 265.074219 265.445312 266.378906 " fill-opacity="1" fill-rule="nonzero"/></g><path fill="#231f20" d="M 109.03125 112.074219 C 108.882812 112.347656 108.984375 112.398438 109.304688 112.128906 C 109.625 111.851562 110.363281 111.042969 111.007812 110.558594 C 113 108.703125 114.265625 107.359375 114.496094 106.820312 C 114.5625 106.65625 114.21875 106.828125 113.761719 107.175781 C 113.3125 107.523438 112.425781 108.304688 111.832031 108.871094 C 110.363281 110.214844 109.355469 111.371094 109.03125 112.074219 " fill-opacity="1" fill-rule="nonzero"/><path fill="#231f20" d="M 139.027344 82.996094 C 138.851562 83.070312 138.328125 83.285156 137.976562 83.429688 C 137.535156 83.644531 137.042969 83.882812 136.664062 84.070312 C 132.851562 86.097656 131.835938 87.074219 134.6875 85.984375 C 135.179688 85.796875 136.617188 85.113281 137.164062 84.808594 C 139.820312 83.324219 140.582031 82.554688 139.027344 82.996094 " fill-opacity="1" fill-rule="nonzero"/><path fill="#231f20" d="M 73.054688 149.292969 C 73.164062 148.917969 73.214844 148.582031 73.175781 148.59375 C 73.132812 148.601562 72.933594 149.082031 72.789062 149.386719 C 71.175781 153.398438 70.359375 157.710938 69.5625 161.8125 C 69.496094 162.175781 69.492188 162.472656 69.535156 162.445312 C 69.582031 162.417969 69.730469 162.023438 69.828125 161.636719 C 70.925781 157.453125 71.753906 153.222656 73.054688 149.292969 " fill-opacity="1" fill-rule="nonzero"/><path fill="#231f20" d="M 90.761719 114.542969 C 91.617188 113.34375 91.890625 112.847656 91.476562 113.300781 C 91.304688 113.484375 90.851562 114.082031 90.5625 114.484375 C 88.976562 116.769531 87.246094 118.953125 85.804688 121.328125 L 81.671875 128.558594 C 81.503906 128.851562 81.429688 129.105469 81.3125 129.375 C 81.503906 129.121094 81.734375 128.855469 81.871094 128.613281 L 86.015625 121.382812 C 87.464844 119.015625 89.183594 116.828125 90.761719 114.542969 " fill-opacity="1" fill-rule="nonzero"/><path fill="#231f20" d="M 292.832031 157.09375 C 293.140625 157.605469 293 156.40625 292.5 154.292969 C 292.085938 152.246094 291.253906 150.109375 290.878906 149.761719 C 290.519531 149.40625 290.886719 150.546875 291.363281 152.476562 C 291.816406 154.394531 292.503906 156.558594 292.832031 157.09375 " fill-opacity="1" fill-rule="nonzero"/><path fill="#231f20" d="M 281.746094 233.378906 C 281.664062 233.261719 281.433594 233.4375 281.105469 233.886719 C 280.949219 234.121094 280.421875 235.253906 279.941406 235.917969 C 279.140625 237.390625 278.6875 238.445312 278.742188 238.773438 C 278.777344 238.992188 279.195312 238.507812 280.011719 237.222656 C 281.105469 235.65625 281.878906 233.5625 281.746094 233.378906 " fill-opacity="1" fill-rule="nonzero"/><path fill="#231f20" d="M 175.046875 76.105469 C 174.875 76.089844 174.023438 76.132812 173.660156 76.171875 C 170.84375 76.574219 169.484375 77.269531 170.910156 77.230469 C 171.191406 77.253906 172.753906 76.925781 173.429688 76.914062 C 175.46875 76.683594 176.023438 76.46875 176.160156 76.269531 C 175.808594 76.210938 175.546875 76.144531 175.046875 76.105469 " fill-opacity="1" fill-rule="nonzero"/><path fill="#231f20" d="M 138.285156 87.390625 C 139.246094 86.738281 139.34375 86.511719 138.40625 86.785156 C 138.207031 86.84375 137.746094 87.015625 137.480469 87.148438 C 136.726562 87.527344 135.699219 88.042969 135.351562 88.273438 C 134.644531 88.730469 134.324219 89.03125 133.902344 89.351562 C 134.292969 89.265625 134.464844 89.28125 134.945312 89.117188 C 135.605469 88.894531 137.582031 87.859375 138.285156 87.390625 " fill-opacity="1" fill-rule="nonzero"/><path fill="#231f20" d="M 267.96875 254.175781 C 268.136719 253.871094 268.066406 253.785156 267.804688 253.960938 C 267.574219 254.113281 266.882812 254.742188 266.472656 255.199219 C 266.019531 255.710938 265.660156 256.269531 265.253906 256.808594 C 265.304688 256.886719 265.195312 257.160156 265.464844 256.980469 C 265.699219 256.824219 266.378906 256.199219 266.816406 255.714844 C 267.25 255.226562 267.816406 254.453125 267.96875 254.175781 " fill-opacity="1" fill-rule="nonzero"/><path fill="#231f20" d="M 114.824219 90.1875 C 115.472656 89.648438 115.421875 89.640625 114.429688 90.371094 C 111.46875 92.519531 108.640625 94.671875 106.398438 97.125 C 105.601562 97.9375 105.648438 97.925781 106.617188 97.078125 C 109.375 94.492188 112.132812 92.484375 114.824219 90.1875 " fill-opacity="1" fill-rule="nonzero"/><path fill="#231f20" d="M 242.207031 81.285156 C 243.617188 82.117188 245.148438 82.832031 244.667969 82.429688 C 244.375 82.1875 243.355469 81.507812 242.75 81.164062 C 241.542969 80.464844 240.394531 79.871094 239.144531 79.40625 C 239.441406 79.621094 239.476562 79.699219 239.789062 79.863281 C 240.570312 80.222656 241.371094 80.804688 242.207031 81.285156 " fill-opacity="1" fill-rule="nonzero"/><path fill="#231f20" d="M 67.316406 186.929688 C 67.304688 185.933594 67.289062 184.921875 67.277344 184.109375 C 67.226562 182.789062 67.117188 184.257812 67.042969 187.472656 C 66.972656 188.5625 67.140625 189.65625 67.203125 190.730469 C 67.257812 191.203125 67.304688 191.621094 67.359375 192.066406 C 67.371094 191.429688 67.414062 190.910156 67.386719 190.125 C 67.332031 189.175781 67.269531 187.960938 67.316406 186.929688 " fill-opacity="1" fill-rule="nonzero"/><path fill="#231f20" d="M 161.378906 75.730469 C 160.703125 75.945312 160.003906 76.222656 159.933594 76.3125 C 159.789062 76.535156 161.328125 76.089844 162.71875 75.84375 C 163.410156 75.699219 163.773438 75.546875 164.285156 75.394531 C 164.203125 75.28125 162.738281 75.378906 161.378906 75.730469 " fill-opacity="1" fill-rule="nonzero"/><path fill="#231f20" d="M 286.496094 226.066406 C 286.761719 225.277344 286.511719 225.601562 285.992188 226.65625 C 285.804688 227.03125 285.480469 227.746094 285.414062 227.949219 C 285.230469 228.507812 285.125 228.9375 285.0625 229.273438 C 285.050781 229.335938 285.390625 228.6875 285.570312 228.363281 C 285.886719 227.578125 286.285156 226.585938 286.496094 226.066406 " fill-opacity="1" fill-rule="nonzero"/><path fill="#231f20" d="M 284.078125 223.933594 C 284.105469 223.851562 284.375 223.070312 284.503906 222.695312 C 285.121094 220.621094 285.136719 219.992188 285.214844 219.21875 C 284.59375 221.132812 283.910156 223.179688 283.699219 224.382812 C 283.644531 224.691406 283.910156 224.222656 284.078125 223.933594 " fill-opacity="1" fill-rule="nonzero"/><path fill="#231f20" d="M 285.214844 219.21875 C 285.296875 218.933594 285.355469 218.738281 285.4375 218.457031 C 285.457031 218.394531 285.488281 218.289062 285.503906 218.222656 L 285.320312 218.707031 C 285.292969 218.824219 285.238281 219.105469 285.214844 219.21875 " fill-opacity="1" fill-rule="nonzero"/><path fill="#231f20" d="M 160.652344 80.003906 C 160.4375 80.042969 159.789062 80.214844 159.5 80.308594 C 158.539062 80.621094 158.410156 80.738281 159.160156 80.609375 C 159.371094 80.554688 159.925781 80.410156 160.296875 80.316406 C 161.261719 79.992188 161.421875 79.875 160.652344 80.003906 " fill-opacity="1" fill-rule="nonzero"/><path fill="#231f20" d="M 144.691406 86.796875 C 145.140625 86.558594 145.515625 86.359375 145.90625 86.148438 L 144.851562 86.480469 L 143.679688 87.113281 C 144.03125 87.003906 144.65625 86.808594 144.691406 86.796875 " fill-opacity="1" fill-rule="nonzero"/><path fill="#231f20" d="M 287.773438 149.070312 C 287.316406 148.058594 287.292969 148.214844 287.71875 149.464844 C 287.851562 149.769531 288.054688 150.253906 288.222656 150.660156 C 288.230469 150.566406 288.308594 150.613281 288.234375 150.347656 C 288.152344 150.0625 287.886719 149.324219 287.773438 149.070312 " fill-opacity="1" fill-rule="nonzero"/><path fill="#231f20" d="M 171.488281 79.597656 L 171.582031 79.492188 L 170.742188 79.679688 Z M 171.488281 79.597656 " fill-opacity="1" fill-rule="nonzero"/><path fill="#231f20" d="M 105.347656 112.648438 L 104.871094 113.089844 L 104.75 113.351562 Z M 105.347656 112.648438 " fill-opacity="1" fill-rule="nonzero"/><path fill="#231f20" d="M 226.085938 84.792969 L 225.96875 84.632812 C 225.746094 84.542969 225.503906 84.507812 225.269531 84.445312 C 225.546875 84.546875 225.824219 84.648438 226.085938 84.792969 " fill-opacity="1" fill-rule="nonzero"/><path fill="#231f20" d="M 259.609375 98.640625 L 258.824219 97.964844 L 259.390625 98.539062 Z M 259.609375 98.640625 " fill-opacity="1" fill-rule="nonzero"/><g fill="#141414" fill-opacity="1"><g transform="translate(144.390433, 224.779437)"><g><path d="M 10.328125 4.453125 C 8.878906 4.453125 7.550781 4.265625 6.34375 3.890625 C 5.144531 3.515625 4.109375 2.992188 3.234375 2.328125 C 1.804688 3.566406 0.363281 4.570312 -1.09375 5.34375 C -2.5625 6.125 -3.972656 6.515625 -5.328125 6.515625 C -6.378906 6.515625 -7.15625 6.300781 -7.65625 5.875 C -8.164062 5.445312 -8.421875 4.960938 -8.421875 4.421875 C -8.421875 3.921875 -8.203125 3.460938 -7.765625 3.046875 C -7.335938 2.628906 -6.75 2.421875 -6 2.421875 C -5.695312 2.421875 -5.378906 2.453125 -5.046875 2.515625 C -4.710938 2.578125 -4.375 2.707031 -4.03125 2.90625 C -4.351562 2.882812 -4.597656 2.957031 -4.765625 3.125 C -4.941406 3.300781 -5.03125 3.492188 -5.03125 3.703125 C -5.03125 4.265625 -4.546875 4.546875 -3.578125 4.546875 C -2.722656 4.546875 -1.78125 4.28125 -0.75 3.75 C 0.269531 3.226562 1.328125 2.523438 2.421875 1.640625 C 1.148438 0.367188 0.515625 -1.144531 0.515625 -2.90625 C 0.515625 -4.101562 0.832031 -5.226562 1.46875 -6.28125 C 2.101562 -7.34375 3.035156 -8.203125 4.265625 -8.859375 C 5.503906 -9.515625 7.007812 -9.84375 8.78125 -9.84375 C 9.332031 -9.84375 9.84375 -9.804688 10.3125 -9.734375 C 10.789062 -9.671875 11.234375 -9.585938 11.640625 -9.484375 C 11.878906 -9.890625 12.101562 -10.285156 12.3125 -10.671875 C 12.53125 -11.066406 12.738281 -11.457031 12.9375 -11.84375 C 11.988281 -12.332031 10.96875 -12.578125 9.875 -12.578125 C 9.425781 -12.597656 9.0625 -12.535156 8.78125 -12.390625 C 8.5 -12.242188 8.367188 -12.03125 8.390625 -11.75 C 8.390625 -11.550781 8.46875 -11.367188 8.625 -11.203125 C 8.789062 -11.046875 9.003906 -10.957031 9.265625 -10.9375 C 8.421875 -10.570312 7.675781 -10.410156 7.03125 -10.453125 C 6.382812 -10.492188 5.878906 -10.664062 5.515625 -10.96875 C 5.148438 -11.269531 4.96875 -11.613281 4.96875 -12 C 4.96875 -12.363281 5.15625 -12.722656 5.53125 -13.078125 C 5.90625 -13.429688 6.492188 -13.695312 7.296875 -13.875 C 6.671875 -13.976562 6.085938 -14.25 5.546875 -14.6875 C 5.015625 -15.132812 4.585938 -15.679688 4.265625 -16.328125 C 3.941406 -16.972656 3.78125 -17.640625 3.78125 -18.328125 C 3.78125 -19.160156 4.035156 -19.957031 4.546875 -20.71875 C 5.066406 -21.488281 5.851562 -22.117188 6.90625 -22.609375 C 7.957031 -23.109375 9.300781 -23.359375 10.9375 -23.359375 C 12.03125 -23.359375 12.972656 -23.21875 13.765625 -22.9375 C 14.566406 -22.65625 15.273438 -22.367188 15.890625 -22.078125 C 16.503906 -21.796875 17.054688 -21.65625 17.546875 -21.65625 C 17.785156 -21.65625 18.03125 -21.691406 18.28125 -21.765625 C 18.53125 -21.835938 18.738281 -21.953125 18.90625 -22.109375 L 19 -22.03125 C 18.226562 -20.914062 17.507812 -19.570312 16.84375 -18 C 16.175781 -16.4375 15.445312 -14.800781 14.65625 -13.09375 C 16.03125 -12.539062 17.179688 -11.800781 18.109375 -10.875 C 19.046875 -9.945312 19.75 -8.910156 20.21875 -7.765625 C 20.695312 -6.628906 20.9375 -5.453125 20.9375 -4.234375 C 20.9375 -2.523438 20.488281 -1.015625 19.59375 0.296875 C 18.707031 1.609375 17.46875 2.628906 15.875 3.359375 C 14.28125 4.085938 12.429688 4.453125 10.328125 4.453125 Z M 4 -3.265625 C 4 -2.203125 4.222656 -1.253906 4.671875 -0.421875 C 5.773438 -1.515625 6.847656 -2.710938 7.890625 -4.015625 C 8.929688 -5.316406 9.882812 -6.644531 10.75 -8 C 10.164062 -8.238281 9.507812 -8.359375 8.78125 -8.359375 C 7.894531 -8.359375 7.09375 -8.144531 6.375 -7.71875 C 5.65625 -7.300781 5.078125 -6.710938 4.640625 -5.953125 C 4.210938 -5.191406 4 -4.296875 4 -3.265625 Z M 5.234375 0.421875 C 5.785156 1.148438 6.507812 1.726562 7.40625 2.15625 C 8.300781 2.59375 9.296875 2.8125 10.390625 2.8125 C 11.847656 2.8125 13.09375 2.507812 14.125 1.90625 C 15.164062 1.300781 15.957031 0.472656 16.5 -0.578125 C 17.050781 -1.628906 17.328125 -2.832031 17.328125 -4.1875 C 17.328125 -5.71875 17.003906 -7.109375 16.359375 -8.359375 C 15.710938 -9.609375 14.851562 -10.597656 13.78125 -11.328125 C 13.582031 -10.960938 13.382812 -10.601562 13.1875 -10.25 C 13 -9.894531 12.796875 -9.53125 12.578125 -9.15625 C 13.785156 -8.664062 14.664062 -7.992188 15.21875 -7.140625 C 15.78125 -6.296875 16.0625 -5.441406 16.0625 -4.578125 C 16.0625 -3.722656 15.785156 -2.96875 15.234375 -2.3125 C 14.691406 -1.65625 13.925781 -1.328125 12.9375 -1.328125 C 12.207031 -1.328125 11.554688 -1.554688 10.984375 -2.015625 C 10.410156 -2.472656 10.125 -3.242188 10.125 -4.328125 C 10.238281 -4.085938 10.40625 -3.90625 10.625 -3.78125 C 10.851562 -3.664062 11.085938 -3.609375 11.328125 -3.609375 C 11.835938 -3.609375 12.210938 -3.835938 12.453125 -4.296875 C 12.691406 -4.765625 12.742188 -5.304688 12.609375 -5.921875 C 12.484375 -6.535156 12.128906 -7.066406 11.546875 -7.515625 C 10.617188 -6.140625 9.625 -4.773438 8.5625 -3.421875 C 7.5 -2.066406 6.390625 -0.785156 5.234375 0.421875 Z M 7.359375 -18.328125 C 7.359375 -17.273438 7.703125 -16.460938 8.390625 -15.890625 C 9.078125 -15.316406 9.84375 -15.03125 10.6875 -15.03125 C 11.457031 -15.03125 12.144531 -15.257812 12.75 -15.71875 L 12.8125 -15.65625 L 11.78125 -13.875 C 12.101562 -13.832031 12.425781 -13.773438 12.75 -13.703125 C 13.070312 -13.640625 13.367188 -13.554688 13.640625 -13.453125 C 14.316406 -15.128906 14.65625 -16.570312 14.65625 -17.78125 C 14.65625 -18.976562 14.3125 -19.953125 13.625 -20.703125 C 12.945312 -21.460938 12.050781 -21.84375 10.9375 -21.84375 C 9.882812 -21.84375 9.023438 -21.507812 8.359375 -20.84375 C 7.691406 -20.175781 7.359375 -19.335938 7.359375 -18.328125 Z M 7.359375 -18.328125 "/></g></g></g><g fill="#141414" fill-opacity="1"><g transform="translate(164.940874, 224.779437)"><g><path d="M 8.203125 -1.671875 C 8.816406 -1.671875 9.316406 -1.910156 9.703125 -2.390625 C 10.097656 -2.878906 10.382812 -3.523438 10.5625 -4.328125 C 10.75 -5.140625 10.84375 -6.03125 10.84375 -7 C 10.84375 -8.070312 10.734375 -9.175781 10.515625 -10.3125 C 10.304688 -11.457031 10 -12.515625 9.59375 -13.484375 C 9.195312 -14.453125 8.71875 -15.234375 8.15625 -15.828125 C 7.601562 -16.421875 6.984375 -16.71875 6.296875 -16.71875 C 5.671875 -16.71875 5.15625 -16.472656 4.75 -15.984375 C 4.351562 -15.503906 4.0625 -14.863281 3.875 -14.0625 C 3.695312 -13.269531 3.609375 -12.390625 3.609375 -11.421875 C 3.609375 -10.328125 3.71875 -9.207031 3.9375 -8.0625 C 4.15625 -6.925781 4.460938 -5.875 4.859375 -4.90625 C 5.253906 -3.9375 5.734375 -3.15625 6.296875 -2.5625 C 6.867188 -1.96875 7.503906 -1.671875 8.203125 -1.671875 Z M 0.78125 -9.515625 C 0.78125 -12.398438 1.347656 -14.648438 2.484375 -16.265625 C 3.617188 -17.878906 5.203125 -18.6875 7.234375 -18.6875 C 8.515625 -18.6875 9.640625 -18.285156 10.609375 -17.484375 C 11.578125 -16.691406 12.332031 -15.582031 12.875 -14.15625 C 13.414062 -12.738281 13.6875 -11.085938 13.6875 -9.203125 C 13.6875 -7.328125 13.414062 -5.671875 12.875 -4.234375 C 12.332031 -2.804688 11.578125 -1.691406 10.609375 -0.890625 C 9.640625 -0.0976562 8.515625 0.296875 7.234375 0.296875 C 5.921875 0.296875 4.78125 -0.101562 3.8125 -0.90625 C 2.84375 -1.71875 2.09375 -2.859375 1.5625 -4.328125 C 1.039062 -5.804688 0.78125 -7.535156 0.78125 -9.515625 Z M 6 -19.359375 L 7.453125 -23.515625 L 10.09375 -23.515625 L 10.09375 -23.203125 L 7.0625 -19.359375 Z M 6 -19.359375 "/></g></g></g><g fill="#141414" fill-opacity="1"><g transform="translate(178.748605, 224.779437)"><g><path d="M 6.03125 0.296875 C 5 0.296875 3.992188 0.09375 3.015625 -0.3125 C 2.035156 -0.726562 1.222656 -1.34375 0.578125 -2.15625 L 1.78125 -6.515625 L 1.875 -6.515625 C 2 -5.460938 2.296875 -4.59375 2.765625 -3.90625 C 3.242188 -3.21875 3.804688 -2.707031 4.453125 -2.375 C 5.097656 -2.039062 5.734375 -1.875 6.359375 -1.875 C 7.085938 -1.875 7.710938 -2.09375 8.234375 -2.53125 C 8.765625 -2.96875 9.03125 -3.609375 9.03125 -4.453125 C 9.03125 -5.160156 8.835938 -5.757812 8.453125 -6.25 C 8.066406 -6.75 7.566406 -7.195312 6.953125 -7.59375 C 6.335938 -8 5.691406 -8.394531 5.015625 -8.78125 C 4.335938 -9.164062 3.691406 -9.59375 3.078125 -10.0625 C 2.460938 -10.539062 1.960938 -11.101562 1.578125 -11.75 C 1.191406 -12.394531 1 -13.164062 1 -14.0625 C 1 -15.445312 1.460938 -16.5625 2.390625 -17.40625 C 3.316406 -18.257812 4.53125 -18.6875 6.03125 -18.6875 C 6.976562 -18.6875 7.773438 -18.5625 8.421875 -18.3125 C 9.066406 -18.0625 9.5625 -17.9375 9.90625 -17.9375 C 10.070312 -17.9375 10.203125 -17.988281 10.296875 -18.09375 L 10.453125 -13.640625 L 10.328125 -13.609375 C 9.984375 -14.535156 9.429688 -15.296875 8.671875 -15.890625 C 7.921875 -16.484375 7.117188 -16.78125 6.265625 -16.78125 C 5.617188 -16.78125 5.054688 -16.597656 4.578125 -16.234375 C 4.109375 -15.867188 3.875 -15.304688 3.875 -14.546875 C 3.875 -13.898438 4.066406 -13.347656 4.453125 -12.890625 C 4.835938 -12.429688 5.332031 -12.007812 5.9375 -11.625 C 6.539062 -11.25 7.1875 -10.867188 7.875 -10.484375 C 8.5625 -10.097656 9.207031 -9.660156 9.8125 -9.171875 C 10.414062 -8.691406 10.910156 -8.125 11.296875 -7.46875 C 11.679688 -6.8125 11.875 -6.007812 11.875 -5.0625 C 11.875 -3.863281 11.59375 -2.863281 11.03125 -2.0625 C 10.476562 -1.269531 9.753906 -0.675781 8.859375 -0.28125 C 7.960938 0.101562 7.019531 0.296875 6.03125 0.296875 Z M 6.03125 0.296875 "/></g></g></g><g fill="#141414" fill-opacity="1"><g transform="translate(190.427059, 224.779437)"><g><path d="M 0.453125 -0.09375 C 0.960938 -0.269531 1.320312 -0.628906 1.53125 -1.171875 C 1.738281 -1.722656 1.84375 -2.601562 1.84375 -3.8125 L 1.84375 -14.578125 C 1.84375 -15.785156 1.738281 -16.660156 1.53125 -17.203125 C 1.320312 -17.753906 0.960938 -18.117188 0.453125 -18.296875 L 0.453125 -18.390625 L 6.125 -18.390625 L 6.125 -18.296875 C 5.613281 -18.117188 5.253906 -17.753906 5.046875 -17.203125 C 4.847656 -16.660156 4.75 -15.785156 4.75 -14.578125 L 4.75 -11.15625 L 7.390625 -14.578125 C 8.335938 -15.785156 8.863281 -16.660156 8.96875 -17.203125 C 9.070312 -17.753906 8.941406 -18.117188 8.578125 -18.296875 L 8.578125 -18.390625 L 13.75 -18.390625 L 13.75 -18.296875 C 13.3125 -18.097656 12.847656 -17.765625 12.359375 -17.296875 C 11.878906 -16.835938 11.332031 -16.203125 10.71875 -15.390625 L 9.0625 -13.203125 L 12.515625 -3.8125 C 12.878906 -2.90625 13.1875 -2.195312 13.4375 -1.6875 C 13.6875 -1.1875 13.925781 -0.820312 14.15625 -0.59375 C 14.394531 -0.375 14.675781 -0.207031 15 -0.09375 L 15 0 L 9.09375 0 L 9.09375 -0.09375 C 9.550781 -0.269531 9.8125 -0.628906 9.875 -1.171875 C 9.9375 -1.722656 9.753906 -2.601562 9.328125 -3.8125 L 6.8125 -10.78125 L 4.75 -7.9375 L 4.75 -3.8125 C 4.75 -2.601562 4.847656 -1.722656 5.046875 -1.171875 C 5.253906 -0.628906 5.613281 -0.269531 6.125 -0.09375 L 6.125 0 L 0.453125 0 Z M 0.453125 -0.09375 "/></g></g></g><g fill="#141414" fill-opacity="1"><g transform="translate(203.879909, 224.779437)"><g><path d="M 7.390625 0.328125 C 5.796875 0.328125 4.410156 -0.0820312 3.234375 -0.90625 C 2.066406 -1.738281 1.3125 -2.8125 0.96875 -4.125 C 1.269531 -4.257812 1.453125 -4.488281 1.515625 -4.8125 C 1.578125 -5.132812 1.617188 -5.4375 1.640625 -5.71875 L 1.9375 -14.90625 C 1.957031 -15.289062 1.941406 -15.71875 1.890625 -16.1875 C 1.835938 -16.664062 1.710938 -17.097656 1.515625 -17.484375 C 1.316406 -17.867188 0.992188 -18.140625 0.546875 -18.296875 L 0.546875 -18.390625 L 6.234375 -18.390625 L 6.234375 -18.296875 C 5.773438 -18.140625 5.445312 -17.867188 5.25 -17.484375 C 5.0625 -17.097656 4.953125 -16.664062 4.921875 -16.1875 C 4.890625 -15.71875 4.863281 -15.289062 4.84375 -14.90625 L 4.546875 -5.265625 C 4.523438 -4.140625 4.773438 -3.25 5.296875 -2.59375 C 5.828125 -1.9375 6.578125 -1.609375 7.546875 -1.609375 C 8.515625 -1.609375 9.269531 -1.929688 9.8125 -2.578125 C 10.363281 -3.222656 10.617188 -4.109375 10.578125 -5.234375 L 10.296875 -14.90625 C 10.296875 -15.289062 10.269531 -15.71875 10.21875 -16.1875 C 10.175781 -16.664062 10.054688 -17.097656 9.859375 -17.484375 C 9.671875 -17.867188 9.351562 -18.140625 8.90625 -18.296875 L 8.90625 -18.390625 L 14.203125 -18.390625 L 14.203125 -18.296875 C 13.742188 -18.140625 13.414062 -17.867188 13.21875 -17.484375 C 13.03125 -17.097656 12.914062 -16.664062 12.875 -16.1875 C 12.832031 -15.71875 12.8125 -15.289062 12.8125 -14.90625 L 13.09375 -5.546875 C 13.113281 -5.265625 13.164062 -4.988281 13.25 -4.71875 C 13.34375 -4.457031 13.519531 -4.257812 13.78125 -4.125 C 13.4375 -2.789062 12.679688 -1.710938 11.515625 -0.890625 C 10.359375 -0.078125 8.984375 0.328125 7.390625 0.328125 Z M 6.671875 -19.359375 L 8.125 -23.515625 L 10.78125 -23.515625 L 10.78125 -23.203125 L 7.75 -19.359375 Z M 6.671875 -19.359375 "/></g></g></g><g fill="#141414" fill-opacity="1"><g transform="translate(217.977999, 224.779437)"><g><path d="M 3.484375 -0.09375 C 4.003906 -0.269531 4.363281 -0.628906 4.5625 -1.171875 C 4.769531 -1.722656 4.875 -2.601562 4.875 -3.8125 L 4.875 -16.453125 L 3.703125 -16.453125 C 2.992188 -16.453125 2.351562 -16.21875 1.78125 -15.75 C 1.21875 -15.289062 0.816406 -14.664062 0.578125 -13.875 L 0.453125 -13.90625 L 1.03125 -18.65625 C 1.113281 -18.5625 1.28125 -18.492188 1.53125 -18.453125 C 1.78125 -18.410156 2.054688 -18.390625 2.359375 -18.390625 L 10.265625 -18.390625 C 10.566406 -18.390625 10.835938 -18.410156 11.078125 -18.453125 C 11.328125 -18.492188 11.492188 -18.5625 11.578125 -18.65625 L 12.171875 -13.90625 L 12.03125 -13.875 C 11.800781 -14.664062 11.398438 -15.289062 10.828125 -15.75 C 10.253906 -16.21875 9.613281 -16.453125 8.90625 -16.453125 L 7.78125 -16.453125 L 7.78125 -3.8125 C 7.78125 -2.601562 7.878906 -1.722656 8.078125 -1.171875 C 8.285156 -0.628906 8.644531 -0.269531 9.15625 -0.09375 L 9.15625 0 L 3.484375 0 Z M 3.484375 -0.09375 "/></g></g></g><g transform="matrix(1, 0, 0, 1, 161, 226)"><g clip-path="url(#52178b0b0c)"><g fill="#8a6430" fill-opacity="1"><g transform="translate(0.710543, 17.124292)"><g><path d="M 13.703125 -9.609375 C 13.816406 -10.222656 13.875 -10.59375 13.875 -10.71875 C 13.875 -10.9375 13.796875 -11.101562 13.640625 -11.21875 C 13.484375 -11.34375 13.1875 -11.40625 12.75 -11.40625 L 9.921875 -11.40625 C 9.878906 -11.269531 9.679688 -10.53125 9.328125 -9.1875 C 8.972656 -7.851562 8.773438 -7.09375 8.734375 -6.90625 L 10.640625 -6.90625 C 11.054688 -6.90625 11.347656 -6.9375 11.515625 -7 C 11.679688 -7.070312 11.828125 -7.335938 11.953125 -7.796875 L 12.515625 -7.796875 C 12.296875 -6.992188 12.109375 -6.085938 11.953125 -5.078125 L 11.375 -5.078125 C 11.4375 -5.390625 11.46875 -5.617188 11.46875 -5.765625 C 11.46875 -5.910156 11.40625 -6.019531 11.28125 -6.09375 C 11.15625 -6.175781 10.875 -6.21875 10.4375 -6.21875 L 8.5625 -6.21875 C 8.519531 -6.019531 8.472656 -5.8125 8.421875 -5.59375 C 8.367188 -5.375 8.304688 -5.148438 8.234375 -4.921875 C 8.171875 -4.691406 8.007812 -4.09375 7.75 -3.125 C 7.488281 -2.164062 7.222656 -1.3125 6.953125 -0.5625 C 7.492188 -0.476562 7.984375 -0.4375 8.421875 -0.4375 C 8.691406 -0.4375 8.96875 -0.457031 9.25 -0.5 L 9.078125 0.078125 L 8.53125 0.125 L 7.8125 0.109375 C 6.625 0.0351562 5.820312 0 5.40625 0 C 4.65625 0 3.894531 0.0625 3.125 0.1875 L 3.25 -0.375 C 3.84375 -0.5 4.257812 -0.644531 4.5 -0.8125 C 4.738281 -0.976562 4.953125 -1.335938 5.140625 -1.890625 C 5.335938 -2.441406 5.660156 -3.550781 6.109375 -5.21875 L 7.671875 -11.40625 C 7.015625 -11.40625 6.359375 -11.207031 5.703125 -10.8125 C 5.054688 -10.425781 4.535156 -9.914062 4.140625 -9.28125 C 3.742188 -8.65625 3.546875 -8.007812 3.546875 -7.34375 C 3.546875 -6.757812 3.6875 -6.234375 3.96875 -5.765625 C 4.0625 -5.585938 4.125 -5.453125 4.15625 -5.359375 C 4.195312 -5.273438 4.21875 -5.1875 4.21875 -5.09375 C 4.21875 -4.894531 4.144531 -4.726562 4 -4.59375 C 3.851562 -4.46875 3.679688 -4.40625 3.484375 -4.40625 C 3.128906 -4.40625 2.851562 -4.609375 2.65625 -5.015625 C 2.457031 -5.429688 2.359375 -5.957031 2.359375 -6.59375 C 2.359375 -7.957031 2.921875 -9.207031 4.046875 -10.34375 C 5.179688 -11.476562 6.664062 -12.046875 8.5 -12.046875 L 12.40625 -12.046875 C 12.789062 -12.046875 13.160156 -12.0625 13.515625 -12.09375 C 13.878906 -12.132812 14.335938 -12.21875 14.890625 -12.34375 C 14.566406 -11.050781 14.359375 -10.140625 14.265625 -9.609375 Z M 13.703125 -9.609375 "/></g></g></g><g fill="#8a6430" fill-opacity="1"><g transform="translate(13.783322, 17.124292)"><g><path d="M 7.171875 -8.671875 C 7.898438 -8.671875 8.488281 -8.398438 8.9375 -7.859375 C 9.394531 -7.316406 9.625 -6.578125 9.625 -5.640625 C 9.625 -4.671875 9.367188 -3.722656 8.859375 -2.796875 C 8.359375 -1.867188 7.703125 -1.125 6.890625 -0.5625 C 6.078125 0 5.242188 0.28125 4.390625 0.28125 C 3.597656 0.28125 2.96875 0.046875 2.5 -0.421875 C 2.03125 -0.898438 1.796875 -1.5625 1.796875 -2.40625 C 1.796875 -3.488281 2.039062 -4.519531 2.53125 -5.5 C 3.03125 -6.488281 3.691406 -7.265625 4.515625 -7.828125 C 5.335938 -8.390625 6.222656 -8.671875 7.171875 -8.671875 Z M 6.125 -7.921875 C 5.789062 -7.921875 5.46875 -7.710938 5.15625 -7.296875 C 4.851562 -6.878906 4.609375 -6.3125 4.421875 -5.59375 C 4.234375 -4.882812 4.140625 -4.082031 4.140625 -3.1875 C 4.140625 -2.382812 4.238281 -1.734375 4.4375 -1.234375 C 4.644531 -0.734375 4.929688 -0.484375 5.296875 -0.484375 C 5.628906 -0.484375 5.953125 -0.6875 6.265625 -1.09375 C 6.578125 -1.507812 6.820312 -2.0625 7 -2.75 C 7.1875 -3.445312 7.28125 -4.203125 7.28125 -5.015625 C 7.28125 -5.960938 7.175781 -6.679688 6.96875 -7.171875 C 6.769531 -7.671875 6.488281 -7.921875 6.125 -7.921875 Z M 6.125 -7.921875 "/></g></g></g><g fill="#8a6430" fill-opacity="1"><g transform="translate(23.231316, 17.124292)"><g><path d="M 10.40625 -8.921875 C 9.6875 -6.617188 9.171875 -4.75 8.859375 -3.3125 C 8.546875 -1.882812 8.382812 -0.882812 8.375 -0.3125 C 8.351562 0.53125 8.300781 1.164062 8.21875 1.59375 C 8.132812 2.03125 8.023438 2.40625 7.890625 2.71875 C 7.546875 3.582031 6.941406 4.253906 6.078125 4.734375 C 5.222656 5.222656 4.210938 5.46875 3.046875 5.46875 C 2.398438 5.46875 1.820312 5.367188 1.3125 5.171875 C 0.800781 4.984375 0.40625 4.722656 0.125 4.390625 C -0.144531 4.066406 -0.28125 3.707031 -0.28125 3.3125 C -0.28125 2.96875 -0.191406 2.644531 -0.015625 2.34375 C 0.148438 2.039062 0.394531 1.757812 0.71875 1.5 C 1.039062 1.238281 1.734375 0.84375 2.796875 0.3125 C 3.066406 0.175781 3.316406 0.03125 3.546875 -0.125 C 3.347656 -0.0390625 3.113281 0 2.84375 0 C 2.46875 0 2.175781 -0.140625 1.96875 -0.421875 C 1.757812 -0.703125 1.65625 -1.082031 1.65625 -1.5625 C 1.65625 -2.164062 1.789062 -2.816406 2.0625 -3.515625 C 2.34375 -4.210938 2.726562 -4.878906 3.21875 -5.515625 C 3.707031 -6.148438 4.257812 -6.703125 4.875 -7.171875 C 5.488281 -7.648438 6.066406 -7.976562 6.609375 -8.15625 C 7.160156 -8.34375 7.847656 -8.4375 8.671875 -8.4375 L 9.484375 -8.421875 L 9.578125 -8.734375 Z M 7.796875 -7.21875 C 7.492188 -7.289062 7.234375 -7.328125 7.015625 -7.328125 C 6.367188 -7.328125 5.8125 -7.113281 5.34375 -6.6875 C 4.882812 -6.269531 4.507812 -5.566406 4.21875 -4.578125 C 4.0625 -4.003906 3.945312 -3.546875 3.875 -3.203125 C 3.800781 -2.867188 3.765625 -2.503906 3.765625 -2.109375 C 3.765625 -1.804688 3.835938 -1.566406 3.984375 -1.390625 C 4.140625 -1.222656 4.332031 -1.140625 4.5625 -1.140625 C 4.832031 -1.140625 5.144531 -1.296875 5.5 -1.609375 C 5.863281 -1.921875 6.148438 -2.257812 6.359375 -2.625 C 6.566406 -2.988281 6.789062 -3.601562 7.03125 -4.46875 Z M 6.4375 -1.65625 C 6.050781 -1.3125 5.660156 -0.992188 5.265625 -0.703125 C 4.867188 -0.410156 4.488281 -0.132812 4.125 0.125 C 3.769531 0.394531 3.4375 0.648438 3.125 0.890625 C 2.8125 1.128906 2.539062 1.375 2.3125 1.625 C 2.082031 1.882812 1.898438 2.144531 1.765625 2.40625 C 1.628906 2.675781 1.5625 2.960938 1.5625 3.265625 C 1.5625 3.679688 1.722656 4.039062 2.046875 4.34375 C 2.367188 4.644531 2.75 4.796875 3.1875 4.796875 C 4.070312 4.796875 4.804688 4.375 5.390625 3.53125 C 5.984375 2.695312 6.28125 1.617188 6.28125 0.296875 C 6.28125 -0.453125 6.332031 -1.101562 6.4375 -1.65625 Z M 6.4375 -1.65625 "/></g></g></g><g fill="#8a6430" fill-opacity="1"><g transform="translate(33.142714, 17.124292)"><g><path d="M 10.34375 -8.984375 L 9.5625 -6.375 C 9.269531 -5.40625 9.003906 -4.378906 8.765625 -3.296875 C 8.535156 -2.210938 8.421875 -1.550781 8.421875 -1.3125 C 8.421875 -1.09375 8.503906 -0.984375 8.671875 -0.984375 C 8.804688 -0.984375 9.050781 -1.09375 9.40625 -1.3125 C 9.769531 -1.539062 10.140625 -1.828125 10.515625 -2.171875 L 10.796875 -1.8125 C 9.847656 -0.945312 9.117188 -0.382812 8.609375 -0.125 C 8.109375 0.125 7.566406 0.25 6.984375 0.25 C 6.742188 0.25 6.546875 0.195312 6.390625 0.09375 C 6.234375 0 6.15625 -0.128906 6.15625 -0.296875 C 6.15625 -0.429688 6.195312 -0.648438 6.28125 -0.953125 L 6.609375 -2.03125 C 6.015625 -1.351562 5.378906 -0.796875 4.703125 -0.359375 C 4.023438 0.078125 3.441406 0.296875 2.953125 0.296875 C 2.523438 0.296875 2.179688 0.128906 1.921875 -0.203125 C 1.671875 -0.535156 1.546875 -1.007812 1.546875 -1.625 C 1.546875 -2.332031 1.742188 -3.109375 2.140625 -3.953125 C 2.535156 -4.796875 3.0625 -5.566406 3.71875 -6.265625 C 4.375 -6.972656 5.078125 -7.523438 5.828125 -7.921875 C 6.210938 -8.117188 6.597656 -8.265625 6.984375 -8.359375 C 7.367188 -8.453125 7.90625 -8.5 8.59375 -8.5 L 9.328125 -8.4375 L 9.578125 -8.84375 Z M 7.75 -7.265625 C 7.4375 -7.347656 7.148438 -7.390625 6.890625 -7.390625 C 6.285156 -7.390625 5.773438 -7.191406 5.359375 -6.796875 C 4.941406 -6.410156 4.566406 -5.796875 4.234375 -4.953125 C 3.898438 -4.109375 3.734375 -3.25 3.734375 -2.375 C 3.734375 -1.507812 3.976562 -1.078125 4.46875 -1.078125 C 4.726562 -1.078125 5.023438 -1.203125 5.359375 -1.453125 C 5.691406 -1.710938 6 -2.070312 6.28125 -2.53125 C 6.570312 -2.988281 6.785156 -3.492188 6.921875 -4.046875 Z M 7.75 -7.265625 "/></g></g></g><g fill="#8a6430" fill-opacity="1"><g transform="translate(43.455713, 17.124292)"><g><path d="M 10.734375 -1.75 C 9.679688 -0.914062 8.875 -0.359375 8.3125 -0.078125 C 7.75 0.203125 7.285156 0.34375 6.921875 0.34375 C 6.691406 0.34375 6.507812 0.296875 6.375 0.203125 C 6.25 0.117188 6.1875 0.0078125 6.1875 -0.125 C 6.1875 -0.164062 6.1875 -0.210938 6.1875 -0.265625 C 6.195312 -0.316406 6.316406 -0.78125 6.546875 -1.65625 C 5.328125 -0.34375 4.238281 0.3125 3.28125 0.3125 C 2.757812 0.3125 2.347656 0.144531 2.046875 -0.1875 C 1.742188 -0.519531 1.59375 -0.976562 1.59375 -1.5625 C 1.59375 -2.257812 1.769531 -3.023438 2.125 -3.859375 C 2.488281 -4.703125 2.976562 -5.492188 3.59375 -6.234375 C 4.21875 -6.972656 4.878906 -7.5625 5.578125 -8 C 6.285156 -8.4375 6.867188 -8.65625 7.328125 -8.65625 L 7.984375 -8.59375 C 8.203125 -9.46875 8.414062 -10.148438 8.625 -10.640625 C 8.84375 -11.128906 9.238281 -11.710938 9.8125 -12.390625 C 10.382812 -13.066406 11.015625 -13.585938 11.703125 -13.953125 C 12.390625 -14.316406 13.082031 -14.5 13.78125 -14.5 C 14.070312 -14.5 14.3125 -14.425781 14.5 -14.28125 C 14.6875 -14.132812 14.78125 -13.953125 14.78125 -13.734375 C 14.78125 -13.492188 14.695312 -13.289062 14.53125 -13.125 C 14.363281 -12.957031 14.160156 -12.875 13.921875 -12.875 C 13.660156 -12.875 13.296875 -12.929688 12.828125 -13.046875 C 12.335938 -13.171875 12.03125 -13.234375 11.90625 -13.234375 C 11.6875 -13.234375 11.507812 -13.160156 11.375 -13.015625 C 11.25 -12.867188 11.125 -12.609375 11 -12.234375 C 10.882812 -11.859375 10.613281 -10.8125 10.1875 -9.09375 L 8.734375 -2.875 C 8.566406 -2.175781 8.484375 -1.722656 8.484375 -1.515625 C 8.484375 -1.253906 8.582031 -1.125 8.78125 -1.125 C 8.863281 -1.125 8.945312 -1.140625 9.03125 -1.171875 C 9.113281 -1.203125 9.273438 -1.300781 9.515625 -1.46875 C 9.765625 -1.632812 10.070312 -1.859375 10.4375 -2.140625 Z M 7.75 -7.5 C 7.351562 -7.59375 7.035156 -7.640625 6.796875 -7.640625 C 6.273438 -7.640625 5.816406 -7.441406 5.421875 -7.046875 C 5.023438 -6.660156 4.644531 -5.941406 4.28125 -4.890625 C 3.925781 -3.835938 3.757812 -2.96875 3.78125 -2.28125 C 3.78125 -1.894531 3.84375 -1.597656 3.96875 -1.390625 C 4.101562 -1.191406 4.28125 -1.09375 4.5 -1.09375 C 4.78125 -1.09375 5.101562 -1.21875 5.46875 -1.46875 C 5.832031 -1.71875 6.101562 -1.988281 6.28125 -2.28125 C 6.46875 -2.582031 6.640625 -2.984375 6.796875 -3.484375 C 6.953125 -3.984375 7.113281 -4.613281 7.28125 -5.375 Z M 7.75 -7.5 "/></g></g></g><g fill="#8a6430" fill-opacity="1"><g transform="translate(54.108545, 17.124292)"><g><path d="M 7.171875 -8.671875 C 7.898438 -8.671875 8.488281 -8.398438 8.9375 -7.859375 C 9.394531 -7.316406 9.625 -6.578125 9.625 -5.640625 C 9.625 -4.671875 9.367188 -3.722656 8.859375 -2.796875 C 8.359375 -1.867188 7.703125 -1.125 6.890625 -0.5625 C 6.078125 0 5.242188 0.28125 4.390625 0.28125 C 3.597656 0.28125 2.96875 0.046875 2.5 -0.421875 C 2.03125 -0.898438 1.796875 -1.5625 1.796875 -2.40625 C 1.796875 -3.488281 2.039062 -4.519531 2.53125 -5.5 C 3.03125 -6.488281 3.691406 -7.265625 4.515625 -7.828125 C 5.335938 -8.390625 6.222656 -8.671875 7.171875 -8.671875 Z M 6.125 -7.921875 C 5.789062 -7.921875 5.46875 -7.710938 5.15625 -7.296875 C 4.851562 -6.878906 4.609375 -6.3125 4.421875 -5.59375 C 4.234375 -4.882812 4.140625 -4.082031 4.140625 -3.1875 C 4.140625 -2.382812 4.238281 -1.734375 4.4375 -1.234375 C 4.644531 -0.734375 4.929688 -0.484375 5.296875 -0.484375 C 5.628906 -0.484375 5.953125 -0.6875 6.265625 -1.09375 C 6.578125 -1.507812 6.820312 -2.0625 7 -2.75 C 7.1875 -3.445312 7.28125 -4.203125 7.28125 -5.015625 C 7.28125 -5.960938 7.175781 -6.679688 6.96875 -7.171875 C 6.769531 -7.671875 6.488281 -7.921875 6.125 -7.921875 Z M 7.859375 -12.921875 L 10.453125 -12.921875 L 6.625 -9.921875 L 6.046875 -9.921875 Z M 7.859375 -12.921875 "/></g></g></g></g></g></svg>